PathFileType	4	(X/Y/Z)	64_1_16_p1_0-195_filt_butterworth.trc
DataRate	CameraRate	NumFrames	NumMarkers	Units	OrigDataRate	OrigDataStartFrame	OrigNumFrames
60.0	60.0	6	27	m	60.0	146	195
Frame#	Time	RHip			RKnee			RAnkle			RBigToe			RSmallToe			RHeel			LHip			LKnee			LAnkle			LBigToe			LSmallToe			LHeel			Neck			Head			Nose			RShoulder			RElbow			RWrist			RThumb			RIndex			RPinky			LShoulder			LElbow			LWrist			LThumb			LIndex			LPinky			
		X1	Y1	Z1	X2	Y2	Z2	X3	Y3	Z3	X4	Y4	Z4	X5	Y5	Z5	X6	Y6	Z6	X7	Y7	Z7	X8	Y8	Z8	X9	Y9	Z9	X10	Y10	Z10	X11	Y11	Z11	X12	Y12	Z12	X13	Y13	Z13	X14	Y14	Z14	X15	Y15	Z15	X16	Y16	Z16	X17	Y17	Z17	X18	Y18	Z18	X19	Y19	Z19	X20	Y20	Z20	X21	Y21	Z21	X22	Y22	Z22	X23	Y23	Z23	X24	Y24	Z24	X25	Y25	Z25	X26	Y26	Z26	X27	Y27	Z27	
146	2.433333333333333	0.3350300118234726	0.7074961923556706	0.55185482706293	0.2885231275272289	1.0077524502784188	0.9263337755231531	0.2578412401875682	1.1807657890232681	1.295951128663234	0.29755138930320224	1.0488710271832888	1.4236496634615317	0.3583815121108314	1.0762596646618465	1.398155462538441	0.1990621393580237	1.2775867804855459	1.3389994502160774	0.12468262426529994	0.6363688795966389	0.5836665743142488	0.08224069105015341	0.9133462676935656	0.9456800972015686	0.06216922673517938	1.1698434012058718	1.295180488533017	0.13913772725669116	1.0087174332663196	1.4218284479074956	0.06306936742093859	1.0618841020956677	1.4061738546843365	0.06511953918258427	1.2739640713285678	1.3146961374303447	0.2800214547804242	0.3558614484588436	0.04083394510881994	0.3357827808554326	0.16084520331169025	-0.13875850991586314	0.34958016370914136	0.16143049710899518	0.02420901192069753	0.4192126248712058	0.5142669087297775	0.08612413511831184	0.4280231446109618	0.6604761603697595	0.3342058747928971	0.4563279755821431	0.6974136322645451	0.6061122883159883	0.4204914631101181	0.6957703414057085	0.7258982078286406	0.4448019752732815	0.7090402942489031	0.7721584103057395	0.4246568083106402	0.7970503392525627	0.7331441097120036	0.10058535751845091	0.3822818277135526	0.11731143241408878	0.009708229400639881	0.4999990349689376	0.36403781676889874	-0.0019923300582360523	0.629996847808939	0.6157779194991195	0.06191804988900408	0.6240347081840385	0.7459374489330306	0.03739757785027932	0.6214736006462861	0.7667824906885753	-0.0003233601854779179	0.6878792177087352	0.7478857140653876
147	2.45	0.33517353653373616	0.7071883498262106	0.5511524647257271	0.2886794942825456	1.0079856170307937	0.9269018858699773	0.25773618778025187	1.1808763268834281	1.2958773069722567	0.29946875440554044	1.0507167505015218	1.4239729616313537	0.35817337472639027	1.0765642291713533	1.3981071619193344	0.1988451648678803	1.2780357222468122	1.338898247132678	0.1246837151691435	0.6362511282301604	0.5837029168325776	0.08229503478622215	0.9133189741245921	0.9457494920556204	0.06210184878413269	1.1698874913144028	1.2951736647979255	0.13914444639643506	1.0086594107778635	1.421866112042269	0.06301977668620573	1.0618413719992774	1.4062023618779589	0.06507542399755555	1.2738615897760601	1.313576796063608	0.2786701075582697	0.35588284005859466	0.04054277419128637	0.3357467195166412	0.1609704609210335	-0.13887568182462018	0.3519315282234188	0.15838366330127432	0.026121364166362633	0.41922700494890286	0.5142344383459774	0.08622903539120669	0.42800002730856657	0.6574132774870866	0.3353126332794194	0.4552831605883495	0.6979807033398904	0.6052206801407021	0.4196153548853015	0.6996177498358198	0.7236302544275648	0.4448575094892301	0.7089368904368911	0.7729046143704165	0.4231074286646147	0.7915359287741631	0.73244688577781	0.10049145486087113	0.382795210313691	0.1156883563131166	0.009732813413396635	0.5002090586502972	0.3641544132643874	-0.0023808948858819582	0.6247580596670028	0.6170400435498101	0.06395711883970928	0.6156994693113849	0.7474797486821905	0.041670531334565636	0.6060272412314628	0.7697261607819593	-0.0017144066489490264	0.6788255648550525	0.7502273583314145
148	2.466666666666667	0.3352683392380348	0.7058991281555014	0.5515632905419039	0.2888677300989192	1.008302220412542	0.9276942297323848	0.25777860845035266	1.181011954478428	1.2958728821339411	0.3002387914251359	1.0514800139314773	1.4238095337943437	0.35803216701047924	1.0767453473984412	1.3980886990464048	0.19794696108722915	1.2799610585133439	1.3389211091535642	0.12458900086432945	0.6353992266085324	0.5838774216936985	0.08209660763834642	0.9151536244865811	0.9451331638289965	0.061996527552759306	1.170063491565918	1.2952721055201777	0.1390997359820653	1.0086662602184981	1.421860255773416	0.0628684996853586	1.0618156978023268	1.4062884082427236	0.064786844022099	1.2759580365131853	1.3125799960881426	0.27769711512237016	0.3560003257007413	0.04029868971713581	0.33584203950777053	0.16149045588844535	-0.13920725668731052	0.3537117797119823	0.15641927302043543	0.027697192490505486	0.41924104636888426	0.5141935356299281	0.08628623997158884	0.42789426276479575	0.6563118691439599	0.33581985055309505	0.45402850896834596	0.6971327994132915	0.6047561270835722	0.4189045524148234	0.7029936902631239	0.7217865644985282	0.44361331538075804	0.7111959479771574	0.7734280649675117	0.42289780082851836	0.785589284618021	0.7323895587857916	0.10047759235713974	0.38281037213533514	0.11525878540548297	0.009732692254703103	0.5003618438326877	0.3643876730797878	-0.002305307752161218	0.6206685877836368	0.6168597964488405	0.06550574732135095	0.6115442420632787	0.7463916298750884	0.04539668405665113	0.597214187156845	0.7720194935335029	-0.001011180175289447	0.6734669115797766	0.7504803717467114
149	2.4833333333333334	0.33537365072504444	0.7025850056848215	0.5529194710434432	0.2890163183768749	1.0084312234384156	0.9278722498061522	0.2579758641415739	1.1810458151543468	1.29597161844596	0.300272350320889	1.0515414844777495	1.4235664173374358	0.3580048352684821	1.0768249223865203	1.3980969572334343	0.19589491179838722	1.283165930530332	1.3391827276286485	0.12385957017877035	0.6341222553482364	0.5840336426211773	0.08159062552999434	0.9190524388758499	0.9435651117463195	0.06189228483233525	1.1701610005456806	1.295426629937516	0.13903353804429197	1.0086934953180973	1.4218089230399475	0.06265816059565035	1.0618765589247778	1.4064880899680419	0.06352919661507762	1.2812723452360957	1.312108800075434	0.27757174908236715	0.3561908688803279	0.04015488562090786	0.33675602554213074	0.16188017884610736	-0.13940849523479926	0.3544113208211095	0.1566418569091952	0.02792503082677314	0.41924586252607593	0.5142200841538132	0.08627610975243821	0.4279984264297191	0.6559738961339174	0.336014024615275	0.4543982801103055	0.6924361489283309	0.6059302215356982	0.4174853255515255	0.7042510774168685	0.720639787908816	0.4406088990334735	0.7141042618848087	0.7730344744071568	0.42629888763175827	0.7785152603679781	0.7335435400693794	0.10051844313087716	0.3825574572226289	0.1154444144734615	0.009709931042022689	0.5006113857472786	0.3648637150838442	-0.001045920564025362	0.6186736217148027	0.6182405950666616	0.06688199015740603	0.6126470118086218	0.7438097998608748	0.04936580350856866	0.5937312558065686	0.7731189086304338	0.0023116541898684988	0.6728315861217297	0.7495276044896386
150	2.5	0.3354928027477463	0.6980380073598976	0.5545963960758379	0.2891447357351827	1.008084142779186	0.9267292151537578	0.25816798380607964	1.1808899141337974	1.2960867775339588	0.30015121601073574	1.0513506691558694	1.423409260187338	0.35804878871936446	1.0768596258267047	1.3981065160769535	0.19320420354105655	1.2855408474602323	1.3395820379029217	0.12248773642385574	0.6331460520156975	0.5838618965261042	0.08092976371075408	0.9239342000461817	0.9415078792280331	0.061829248233114024	1.1702879395481136	1.2958798686878572	0.13897789022739035	1.008701054125181	1.4217277878255132	0.0623922681717726	1.062138280572067	1.4069840407242145	0.060721268580274476	1.2876815711275762	1.3121767412724403	0.27858876797804516	0.35619264643663207	0.0401719986352623	0.33877242829811116	0.16137564135271365	-0.13901746765304474	0.35440078095903865	0.15904404794097654	0.026754176593585036	0.4192448501474616	0.5143865387645845	0.08617724802008402	0.4289282035088774	0.6544574895955096	0.3361181945132921	0.45730427472112034	0.6835227126493786	0.6089095671170263	0.4146750670084729	0.703780375837177	0.7208501030340233	0.43633729706810465	0.7153360135311022	0.7722100542619369	0.43358370771037125	0.7693846103389714	0.7366685778345194	0.1006767624079197	0.3813174349961689	0.11616623919555064	0.009603189865457037	0.5012102081090347	0.36570319653474925	0.0023298893390138456	0.6163931317140565	0.622676587227294	0.06887762512459081	0.6170896949735212	0.7418423176849356	0.054011953956470155	0.5932959155080573	0.7731191925293648	0.00857595421582996	0.6729999596614785	0.7491412737991054
151	2.5166666666666666	0.33556758128749703	0.6944624355733652	0.5554562359427073	0.28928011246069374	1.0073220370212002	0.9247784197282793	0.2582314654860362	1.1806461812696327	1.2961353167395022	0.3001705318563064	1.0506916121731282	1.4233346360921852	0.3581111063898044	1.0768292442666103	1.3981057124506797	0.1909393083273044	1.285275049264787	1.339923142498236	0.12046724787574623	0.6337843697187059	0.582917010858288	0.08041392118722822	0.9276083439035457	0.9399299038096646	0.06182850525073779	1.1707128253495274	1.2967986247277472	0.1389713409239569	1.008700485149796	1.4217296945699354	0.06205549767047634	1.0626287813427564	1.4079183131938258	0.0571961831822284	1.2912165303255747	1.3127245473989233	0.2808218217189591	0.3554100603888276	0.04058401175878646	0.34162349111976587	0.15936712160909444	-0.13768549840439862	0.35420209813489145	0.16237478038284886	0.02498495578110725	0.4192485382755362	0.5146409940866647	0.08598968430081796	0.4310590585593914	0.6508472455939952	0.3360965815378779	0.4612495794950561	0.6730116478867647	0.6126648524467582	0.4103739855441568	0.7025461768560395	0.723835087770944	0.4320702787284019	0.713545850206783	0.7727387772257696	0.4422801409566722	0.7598943823796915	0.7419446200902572	0.10101259496829004	0.37839636601801796	0.1175926710621923	0.009405486571222452	0.5020678123349659	0.3667266104408223	0.00795286471349508	0.6104577697132846	0.6284970666748331	0.0716368989349351	0.6223331846934654	0.7414799652660318	0.058486255099173115	0.5951529963513725	0.7726148761850928	0.018291209176673467	0.668656280133965	0.7507246343364921
